<svg xmlns="http://www.w3.org/2000/svg" viewBox="0 0 64 64">
  <!-- Google Cloud Platform logo: cloud shape with Google colors -->
  <!-- Cloud body -->
  <path d="M40.5 24.5c-0.8-4.2-4.5-7.5-9-7.5-3.5 0-6.6 1.9-8.3 4.8C20.4 21.3 17 24.5 17 28.5c0 4.1 3.4 7.5 7.5 7.5h15.5c3.6 0 6.5-2.9 6.5-6.5 0-3.2-2.3-5.8-5.5-5z" fill="#4285F4"/>
  <!-- Red dot -->
  <circle cx="22" cy="40" r="3.5" fill="#EA4335"/>
  <!-- Yellow dot -->
  <circle cx="32" cy="43" r="3.5" fill="#FBBC05"/>
  <!-- Green dot -->
  <circle cx="42" cy="40" r="3.5" fill="#34A853"/>
  <!-- Connecting lines -->
  <line x1="22" y1="36.5" x2="22" y2="32" stroke="#EA4335" stroke-width="2.5" stroke-linecap="round"/>
  <line x1="32" y1="39.5" x2="32" y2="32" stroke="#FBBC05" stroke-width="2.5" stroke-linecap="round"/>
  <line x1="42" y1="36.5" x2="42" y2="32" stroke="#34A853" stroke-width="2.5" stroke-linecap="round"/>
</svg>
