<svg xmlns="http://www.w3.org/2000/svg" viewBox="0 0 24 24">
  <path d="M12.19 2.5c-2.67 0-5.07 1.06-6.84 2.77l2.5 2.5C9 6.67 10.52 6 12.19 6c2.43 0 4.5 1.56 5.25 3.73l.27.77h2.6c.44 0 .8.36.8.8v.01c0 2.32-1.06 4.4-2.74 5.8l2.5 2.5C23.03 17.24 24 14.72 24 12c0-5.24-4.28-9.5-9.56-9.5h-.25z" fill="#EA4335"/>
  <path d="M5.35 5.27C3.3 7.07 2 9.69 2 12.62c0 3.56 2.06 6.65 5.07 8.21l2.5-2.5C7.52 17.37 6.25 15.62 6.25 13.62c0-1.26.46-2.41 1.21-3.3L5.35 5.27z" fill="#4285F4"/>
  <path d="M12.19 19.25c-1.67 0-3.19-.67-4.32-1.76l-2.5 2.5C6.85 21.19 9.38 22.25 12.19 22.25c2.67 0 5.07-1.06 6.84-2.77l-2.5-2.5c-1.15 1.08-2.67 1.77-4.34 1.77z" fill="#34A853"/>
  <path d="M6 12c0-.9.2-1.76.56-2.53L4.04 6.95A9.96 9.96 0 0 0 2 12c0 1.84.5 3.57 1.38 5.06l2.5-2.5A5.47 5.47 0 0 1 6 12z" fill="#FBBC05"/>
  <path d="M12.19 6.75c1.32 0 2.53.46 3.47 1.22l2.18-2.18C16.32 4.3 14.37 3.5 12.19 3.5c-2.81 0-5.34 1.06-7.24 2.79l2.12 2.12c1.13-1.09 2.65-1.66 4.12-1.66z" fill="#EA4335"/>
</svg>
